<svg width="35" height="35" viewBox="0 0 35 35" fill="none" xmlns="http://www.w3.org/2000/svg">
<path d="M33.2678 12.4291L15.7118 29.9838C15.5086 30.187 15.2675 30.3481 15.002 30.4581C14.7366 30.5681 14.4521 30.6247 14.1648 30.6247C13.8775 30.6247 13.593 30.5681 13.3276 30.4581C13.0621 30.3481 12.821 30.187 12.6178 29.9838L2.82604 20.14C2.41653 19.7299 2.18652 19.174 2.18652 18.5944C2.18652 18.0149 2.41653 17.459 2.82604 17.0488L6.10729 13.7676C6.51611 13.3586 7.07023 13.1282 7.64847 13.1267C8.22671 13.1251 8.78203 13.3526 9.19303 13.7594L14.2024 18.5814L14.2174 18.5965L26.8954 6.1045C27.3053 5.69624 27.8604 5.46703 28.4389 5.46703C29.0175 5.46703 29.5725 5.69624 29.9825 6.1045L33.2637 9.32559C33.4686 9.52863 33.6313 9.77018 33.7425 10.0363C33.8537 10.3025 33.9111 10.588 33.9115 10.8765C33.9118 11.1649 33.8552 11.4506 33.7447 11.7171C33.6343 11.9835 33.4722 12.2255 33.2678 12.4291Z" fill="#ADDA64"/>
</svg>
