<svg width="30" height="30" viewBox="0 0 30 30" fill="none" xmlns="http://www.w3.org/2000/svg">
<path d="M23.3241 2.69906C23.5824 2.42595 23.8929 2.2074 24.2371 2.05633C24.5814 1.90526 24.9524 1.82473 25.3283 1.8195C25.7042 1.81427 26.0773 1.88446 26.4256 2.0259C26.7739 2.16734 27.0903 2.37717 27.3561 2.64299C27.6219 2.90881 27.8318 3.22522 27.9732 3.57352C28.1147 3.92183 28.1848 4.29495 28.1796 4.67084C28.1744 5.04673 28.0939 5.41775 27.9428 5.76199C27.7917 6.10622 27.5732 6.41668 27.3001 6.675L19.0594 14.9156C19.0485 14.9265 19.0399 14.9394 19.034 14.9537C19.028 14.9679 19.025 14.9832 19.025 14.9986C19.025 15.014 19.028 15.0293 19.034 15.0435C19.0399 15.0577 19.0485 15.0707 19.0594 15.0816L27.3001 23.3222C27.5647 23.5825 27.7753 23.8927 27.9195 24.2348C28.0637 24.577 28.1387 24.9442 28.1403 25.3155C28.1418 25.6868 28.0699 26.0547 27.9285 26.398C27.7872 26.7413 27.5793 27.0532 27.3168 27.3158C27.0543 27.5784 26.7424 27.7863 26.3991 27.9278C26.0558 28.0692 25.688 28.1412 25.3167 28.1398C24.9454 28.1383 24.5781 28.0633 24.236 27.9192C23.8938 27.7751 23.5836 27.5646 23.3232 27.3L15.0826 19.0594C15.0717 19.0485 15.0587 19.0398 15.0445 19.0339C15.0303 19.028 15.015 19.0249 14.9996 19.0249C14.9842 19.0249 14.9689 19.028 14.9547 19.0339C14.9404 19.0398 14.9275 19.0485 14.9166 19.0594L6.676 27.3C6.41565 27.5647 6.10547 27.7752 5.76335 27.9194C5.42123 28.0636 5.05395 28.1387 4.68268 28.1402C4.31141 28.1418 3.94351 28.0698 3.6002 27.9285C3.25689 27.7871 2.94495 27.5792 2.68239 27.3167C2.41984 27.0542 2.21185 26.7424 2.07043 26.3991C1.92901 26.0558 1.85695 25.6879 1.85842 25.3166C1.85989 24.9454 1.93485 24.5781 2.07898 24.2359C2.22311 23.8938 2.43356 23.5835 2.69818 23.3231L10.9388 15.0825C10.9497 15.0716 10.9584 15.0587 10.9643 15.0444C10.9702 15.0302 10.9732 15.0149 10.9732 14.9995C10.9732 14.9841 10.9702 14.9689 10.9643 14.9546C10.9584 14.9404 10.9497 14.9274 10.9388 14.9166L2.69818 6.67594C2.17777 6.1471 1.88741 5.43405 1.89034 4.6921C1.89327 3.95016 2.18927 3.23942 2.71385 2.71472C3.23842 2.19002 3.94909 1.89386 4.69104 1.89075C5.43298 1.88764 6.1461 2.17784 6.67506 2.69813L14.9157 10.9388C14.9266 10.9497 14.9395 10.9583 14.9537 10.9642C14.968 10.9701 14.9832 10.9732 14.9987 10.9732C15.0141 10.9732 15.0293 10.9701 15.0436 10.9642C15.0578 10.9583 15.0707 10.9497 15.0816 10.9388L23.3222 2.69813L23.3241 2.69906Z" fill="#DA2E2E"/>
</svg>
