<svg width="671" height="692" viewBox="0 0 671 692" fill="none" xmlns="http://www.w3.org/2000/svg">
<line x1="527.588" y1="6.45499" x2="668.588" y2="94.455" stroke="#102A49" stroke-width="6"/>
<line x1="527.287" y1="685.537" x2="665.287" y2="589.537" stroke="#102A49" stroke-width="6"/>
<path d="M20 3.5H517C526.113 3.5 533.5 10.8873 533.5 20V672C533.5 681.113 526.113 688.5 517 688.5H20C10.8873 688.5 3.5 681.113 3.5 672V20C3.5 10.8873 10.8873 3.5 20 3.5Z" stroke="#102A49" stroke-width="7"/>
<path d="M174.984 314V246.8H203.208C211.4 246.8 217.704 249.008 222.12 253.424C225.512 256.816 227.208 261.04 227.208 266.096C227.208 271.536 225.416 275.888 221.832 279.152C218.248 282.416 213.48 284.464 207.528 285.296L229.704 314H223.368L201.96 286.16H179.976V314H174.984ZM179.976 281.648H202.632C208.392 281.648 213.096 280.272 216.744 277.52C220.392 274.704 222.216 270.896 222.216 266.096C222.216 261.552 220.52 257.968 217.128 255.344C213.736 252.72 209 251.408 202.92 251.408H179.976V281.648ZM288.903 304.88C282.567 311.728 274.439 315.152 264.519 315.152C254.599 315.152 246.503 311.76 240.231 304.976C233.959 298.128 230.823 289.936 230.823 280.4C230.823 270.928 233.991 262.768 240.327 255.92C246.663 249.072 254.791 245.648 264.711 245.648C274.631 245.648 282.727 249.072 288.999 255.92C295.271 262.704 298.407 270.864 298.407 280.4C298.407 289.872 295.239 298.032 288.903 304.88ZM244.167 301.808C249.671 307.696 256.519 310.64 264.711 310.64C272.903 310.64 279.687 307.728 285.063 301.904C290.503 296.08 293.223 288.912 293.223 280.4C293.223 272.016 290.471 264.88 284.967 258.992C279.527 253.104 272.711 250.16 264.519 250.16C256.327 250.16 249.511 253.072 244.071 258.896C238.695 264.72 236.007 271.888 236.007 280.4C236.007 288.784 238.727 295.92 244.167 301.808ZM359.906 304.88C353.57 311.728 345.442 315.152 335.522 315.152C325.602 315.152 317.506 311.76 311.234 304.976C304.962 298.128 301.826 289.936 301.826 280.4C301.826 270.928 304.994 262.768 311.33 255.92C317.666 249.072 325.794 245.648 335.714 245.648C345.634 245.648 353.73 249.072 360.002 255.92C366.274 262.704 369.41 270.864 369.41 280.4C369.41 289.872 366.242 298.032 359.906 304.88ZM315.17 301.808C320.674 307.696 327.522 310.64 335.714 310.64C343.906 310.64 350.69 307.728 356.066 301.904C361.506 296.08 364.226 288.912 364.226 280.4C364.226 272.016 361.474 264.88 355.97 258.992C350.53 253.104 343.714 250.16 335.522 250.16C327.33 250.16 320.514 253.072 315.074 258.896C309.698 264.72 307.01 271.888 307.01 280.4C307.01 288.784 309.73 295.92 315.17 301.808ZM375.804 314V246.8H380.508L407.484 286.544L434.46 246.8H439.164V314H434.172V255.632L407.58 294.32H407.196L380.604 255.632V314H375.804Z" fill="#102A49"/>
<ellipse cx="101.5" cy="260" rx="13.5" ry="14" fill="white"/>
<ellipse cx="101.5" cy="260" rx="13.5" ry="14" fill="#102A49"/>
<circle cx="143.5" cy="301.5" r="13.5" fill="white"/>
<circle cx="143.5" cy="301.5" r="13.5" fill="#102A49"/>
<ellipse cx="143.5" cy="260" rx="13.5" ry="14" fill="white"/>
<ellipse cx="143.5" cy="260" rx="13.5" ry="14" fill="#780000"/>
<circle cx="101.5" cy="301.5" r="13.5" fill="white"/>
<circle cx="101.5" cy="301.5" r="13.5" fill="#780000"/>
<path d="M133.21 385.128C133.106 384.868 132.95 384.513 132.742 384.062C132.534 383.594 132.3 383.083 132.04 382.528C131.797 381.956 131.528 381.358 131.234 380.734C130.939 380.093 130.644 379.477 130.35 378.888C130.072 378.299 129.804 377.744 129.544 377.224C129.284 376.704 129.058 376.279 128.868 375.95C128.642 377.943 128.478 379.841 128.374 381.644C128.27 383.429 128.183 385.215 128.114 387H126.528C126.597 384.764 126.71 382.511 126.866 380.24C127.039 377.969 127.256 375.742 127.516 373.558H129.258C129.483 373.922 129.769 374.442 130.116 375.118C130.48 375.794 130.87 376.565 131.286 377.432C131.719 378.281 132.161 379.209 132.612 380.214C133.08 381.202 133.548 382.207 134.016 383.23C134.484 382.207 134.943 381.202 135.394 380.214C135.862 379.209 136.304 378.281 136.72 377.432C137.153 376.565 137.543 375.794 137.89 375.118C138.236 374.442 138.531 373.922 138.774 373.558H140.49C140.75 375.742 140.958 377.969 141.114 380.24C141.287 382.511 141.408 384.764 141.478 387H139.866C139.796 385.215 139.71 383.429 139.606 381.644C139.502 379.841 139.337 377.943 139.112 375.95C138.921 376.297 138.696 376.73 138.436 377.25C138.176 377.753 137.898 378.299 137.604 378.888C137.326 379.477 137.04 380.093 136.746 380.734C136.451 381.358 136.174 381.956 135.914 382.528C135.671 383.083 135.446 383.594 135.238 384.062C135.03 384.513 134.874 384.868 134.77 385.128H133.21ZM145.343 380.266C145.343 379.087 145.507 378.065 145.837 377.198C146.183 376.314 146.625 375.577 147.163 374.988C147.717 374.399 148.341 373.965 149.035 373.688C149.745 373.393 150.473 373.246 151.219 373.246C152.865 373.246 154.174 373.783 155.145 374.858C156.133 375.933 156.627 377.588 156.627 379.824C156.627 379.963 156.618 380.101 156.601 380.24C156.601 380.379 156.592 380.509 156.575 380.63H147.137C147.189 382.277 147.596 383.542 148.359 384.426C149.121 385.31 150.335 385.752 151.999 385.752C152.917 385.752 153.645 385.665 154.183 385.492C154.72 385.319 155.11 385.171 155.353 385.05L155.665 386.506C155.422 386.645 154.963 386.809 154.287 387C153.628 387.191 152.848 387.286 151.947 387.286C150.768 387.286 149.763 387.113 148.931 386.766C148.099 386.419 147.414 385.934 146.877 385.31C146.339 384.686 145.949 383.949 145.707 383.1C145.464 382.233 145.343 381.289 145.343 380.266ZM154.885 379.2C154.85 377.796 154.521 376.704 153.897 375.924C153.273 375.144 152.389 374.754 151.245 374.754C150.638 374.754 150.092 374.875 149.607 375.118C149.139 375.361 148.723 375.69 148.359 376.106C148.012 376.505 147.735 376.973 147.527 377.51C147.336 378.047 147.223 378.611 147.189 379.2H154.885ZM166.477 387.286C165.437 387.286 164.518 387.121 163.721 386.792C162.924 386.463 162.256 385.995 161.719 385.388C161.199 384.764 160.8 384.027 160.523 383.178C160.246 382.311 160.107 381.358 160.107 380.318C160.107 379.261 160.246 378.299 160.523 377.432C160.818 376.565 161.234 375.82 161.771 375.196C162.308 374.572 162.958 374.095 163.721 373.766C164.484 373.419 165.342 373.246 166.295 373.246C167.023 373.246 167.699 373.307 168.323 373.428C168.964 373.549 169.458 373.705 169.805 373.896L169.363 375.352C169.016 375.179 168.626 375.04 168.193 374.936C167.76 374.832 167.179 374.78 166.451 374.78C164.96 374.78 163.825 375.265 163.045 376.236C162.282 377.189 161.901 378.55 161.901 380.318C161.901 381.115 161.988 381.852 162.161 382.528C162.334 383.187 162.612 383.759 162.993 384.244C163.392 384.712 163.894 385.085 164.501 385.362C165.125 385.622 165.879 385.752 166.763 385.752C167.491 385.752 168.098 385.674 168.583 385.518C169.086 385.345 169.45 385.197 169.675 385.076L170.039 386.532C169.727 386.705 169.233 386.87 168.557 387.026C167.898 387.199 167.205 387.286 166.477 387.286ZM182.431 373.558V374.988H178.011V387H176.321V374.988H171.927V373.558H182.431ZM197.032 380.292C197.032 381.349 196.876 382.311 196.564 383.178C196.27 384.045 195.845 384.781 195.29 385.388C194.753 385.995 194.112 386.471 193.366 386.818C192.621 387.147 191.798 387.312 190.896 387.312C189.995 387.312 189.172 387.147 188.426 386.818C187.681 386.471 187.031 385.995 186.476 385.388C185.939 384.781 185.514 384.045 185.202 383.178C184.908 382.311 184.76 381.349 184.76 380.292C184.76 379.235 184.908 378.273 185.202 377.406C185.514 376.539 185.939 375.803 186.476 375.196C187.031 374.572 187.681 374.095 188.426 373.766C189.172 373.419 189.995 373.246 190.896 373.246C191.798 373.246 192.621 373.419 193.366 373.766C194.112 374.095 194.753 374.572 195.29 375.196C195.845 375.803 196.27 376.539 196.564 377.406C196.876 378.273 197.032 379.235 197.032 380.292ZM195.238 380.292C195.238 378.611 194.848 377.276 194.068 376.288C193.288 375.283 192.231 374.78 190.896 374.78C189.562 374.78 188.504 375.283 187.724 376.288C186.944 377.276 186.554 378.611 186.554 380.292C186.554 381.973 186.944 383.308 187.724 384.296C188.504 385.284 189.562 385.778 190.896 385.778C192.231 385.778 193.288 385.284 194.068 384.296C194.848 383.308 195.238 381.973 195.238 380.292ZM218.029 387H216.339V374.988H209.345V387H207.655V373.558H218.029V387ZM224.719 384.582C224.875 384.703 225.065 384.833 225.291 384.972C225.533 385.111 225.811 385.241 226.123 385.362C226.435 385.483 226.773 385.587 227.137 385.674C227.501 385.743 227.882 385.778 228.281 385.778C229.113 385.778 229.806 385.639 230.361 385.362C230.933 385.067 231.392 384.677 231.739 384.192C232.085 383.689 232.337 383.109 232.493 382.45C232.649 381.774 232.727 381.063 232.727 380.318C232.727 378.55 232.285 377.198 231.401 376.262C230.517 375.309 229.347 374.832 227.891 374.832C227.059 374.832 226.383 374.875 225.863 374.962C225.36 375.031 224.979 375.109 224.719 375.196V384.582ZM224.719 391.81H223.029V374.026C223.531 373.853 224.173 373.688 224.953 373.532C225.733 373.376 226.721 373.298 227.917 373.298C228.905 373.298 229.797 373.463 230.595 373.792C231.409 374.104 232.103 374.563 232.675 375.17C233.264 375.777 233.715 376.513 234.027 377.38C234.356 378.247 234.521 379.226 234.521 380.318C234.521 381.341 234.382 382.285 234.105 383.152C233.845 384.001 233.455 384.738 232.935 385.362C232.415 385.969 231.773 386.445 231.011 386.792C230.265 387.139 229.407 387.312 228.437 387.312C227.553 387.312 226.781 387.191 226.123 386.948C225.481 386.688 225.013 386.445 224.719 386.22V391.81ZM250.173 380.292C250.173 381.349 250.017 382.311 249.705 383.178C249.41 384.045 248.985 384.781 248.431 385.388C247.893 385.995 247.252 386.471 246.507 386.818C245.761 387.147 244.938 387.312 244.037 387.312C243.135 387.312 242.312 387.147 241.567 386.818C240.821 386.471 240.171 385.995 239.617 385.388C239.079 384.781 238.655 384.045 238.343 383.178C238.048 382.311 237.901 381.349 237.901 380.292C237.901 379.235 238.048 378.273 238.343 377.406C238.655 376.539 239.079 375.803 239.617 375.196C240.171 374.572 240.821 374.095 241.567 373.766C242.312 373.419 243.135 373.246 244.037 373.246C244.938 373.246 245.761 373.419 246.507 373.766C247.252 374.095 247.893 374.572 248.431 375.196C248.985 375.803 249.41 376.539 249.705 377.406C250.017 378.273 250.173 379.235 250.173 380.292ZM248.379 380.292C248.379 378.611 247.989 377.276 247.209 376.288C246.429 375.283 245.371 374.78 244.037 374.78C242.702 374.78 241.645 375.283 240.865 376.288C240.085 377.276 239.695 378.611 239.695 380.292C239.695 381.973 240.085 383.308 240.865 384.296C241.645 385.284 242.702 385.778 244.037 385.778C245.371 385.778 246.429 385.284 247.209 384.296C247.989 383.308 248.379 381.973 248.379 380.292ZM258.702 373.272C259.222 373.272 259.802 373.307 260.444 373.376C261.102 373.428 261.718 373.575 262.29 373.818C262.862 374.043 263.338 374.407 263.72 374.91C264.118 375.395 264.318 376.063 264.318 376.912C264.318 377.571 264.127 378.16 263.746 378.68C263.364 379.183 262.844 379.555 262.186 379.798C263.156 380.058 263.858 380.474 264.292 381.046C264.725 381.618 264.942 382.32 264.942 383.152C264.942 384.053 264.76 384.781 264.396 385.336C264.032 385.873 263.546 386.289 262.94 386.584C262.35 386.861 261.674 387.043 260.912 387.13C260.166 387.217 259.404 387.26 258.624 387.26C257.688 387.26 256.864 387.199 256.154 387.078C255.46 386.957 254.862 386.827 254.36 386.688V373.844C254.793 373.705 255.365 373.575 256.076 373.454C256.786 373.333 257.662 373.272 258.702 373.272ZM256.05 379.2H259.118C260.158 379.2 260.998 379.027 261.64 378.68C262.281 378.333 262.602 377.753 262.602 376.938C262.602 376.418 262.489 376.011 262.264 375.716C262.038 375.421 261.744 375.205 261.38 375.066C261.016 374.91 260.6 374.815 260.132 374.78C259.664 374.728 259.196 374.702 258.728 374.702C258.156 374.702 257.61 374.737 257.09 374.806C256.57 374.858 256.223 374.91 256.05 374.962V379.2ZM256.05 380.604V385.544C256.136 385.579 256.275 385.613 256.466 385.648C256.674 385.665 256.899 385.691 257.142 385.726C257.402 385.743 257.67 385.761 257.948 385.778C258.242 385.795 258.52 385.804 258.78 385.804C259.369 385.804 259.932 385.769 260.47 385.7C261.007 385.631 261.475 385.501 261.874 385.31C262.272 385.102 262.593 384.833 262.836 384.504C263.078 384.157 263.2 383.707 263.2 383.152C263.2 382.667 263.096 382.259 262.888 381.93C262.697 381.601 262.42 381.341 262.056 381.15C261.709 380.959 261.293 380.821 260.808 380.734C260.34 380.647 259.828 380.604 259.274 380.604H256.05ZM268.267 380.266C268.267 379.087 268.432 378.065 268.761 377.198C269.108 376.314 269.55 375.577 270.087 374.988C270.642 374.399 271.266 373.965 271.959 373.688C272.67 373.393 273.398 373.246 274.143 373.246C275.79 373.246 277.098 373.783 278.069 374.858C279.057 375.933 279.551 377.588 279.551 379.824C279.551 379.963 279.542 380.101 279.525 380.24C279.525 380.379 279.516 380.509 279.499 380.63H270.061C270.113 382.277 270.52 383.542 271.283 384.426C272.046 385.31 273.259 385.752 274.923 385.752C275.842 385.752 276.57 385.665 277.107 385.492C277.644 385.319 278.034 385.171 278.277 385.05L278.589 386.506C278.346 386.645 277.887 386.809 277.211 387C276.552 387.191 275.772 387.286 274.871 387.286C273.692 387.286 272.687 387.113 271.855 386.766C271.023 386.419 270.338 385.934 269.801 385.31C269.264 384.686 268.874 383.949 268.631 383.1C268.388 382.233 268.267 381.289 268.267 380.266ZM277.809 379.2C277.774 377.796 277.445 376.704 276.821 375.924C276.197 375.144 275.313 374.754 274.169 374.754C273.562 374.754 273.016 374.875 272.531 375.118C272.063 375.361 271.647 375.69 271.283 376.106C270.936 376.505 270.659 376.973 270.451 377.51C270.26 378.047 270.148 378.611 270.113 379.2H277.809ZM285.527 384.582C285.683 384.703 285.874 384.833 286.099 384.972C286.342 385.111 286.619 385.241 286.931 385.362C287.243 385.483 287.581 385.587 287.945 385.674C288.309 385.743 288.69 385.778 289.089 385.778C289.921 385.778 290.614 385.639 291.169 385.362C291.741 385.067 292.2 384.677 292.547 384.192C292.894 383.689 293.145 383.109 293.301 382.45C293.457 381.774 293.535 381.063 293.535 380.318C293.535 378.55 293.093 377.198 292.209 376.262C291.325 375.309 290.155 374.832 288.699 374.832C287.867 374.832 287.191 374.875 286.671 374.962C286.168 375.031 285.787 375.109 285.527 375.196V384.582ZM285.527 391.81H283.837V374.026C284.34 373.853 284.981 373.688 285.761 373.532C286.541 373.376 287.529 373.298 288.725 373.298C289.713 373.298 290.606 373.463 291.403 373.792C292.218 374.104 292.911 374.563 293.483 375.17C294.072 375.777 294.523 376.513 294.835 377.38C295.164 378.247 295.329 379.226 295.329 380.318C295.329 381.341 295.19 382.285 294.913 383.152C294.653 384.001 294.263 384.738 293.743 385.362C293.223 385.969 292.582 386.445 291.819 386.792C291.074 387.139 290.216 387.312 289.245 387.312C288.361 387.312 287.59 387.191 286.931 386.948C286.29 386.688 285.822 386.445 285.527 386.22V391.81ZM299.515 387V373.558H301.205V379.772C301.691 379.304 302.228 378.784 302.817 378.212C303.424 377.623 304.013 377.042 304.585 376.47C305.157 375.881 305.686 375.335 306.171 374.832C306.674 374.312 307.073 373.887 307.367 373.558H309.395C308.997 374.009 308.52 374.52 307.965 375.092C307.411 375.647 306.839 376.21 306.249 376.782C305.677 377.354 305.114 377.909 304.559 378.446C304.022 378.983 303.545 379.443 303.129 379.824C303.719 380.205 304.343 380.682 305.001 381.254C305.66 381.809 306.293 382.415 306.899 383.074C307.523 383.715 308.095 384.383 308.615 385.076C309.153 385.752 309.603 386.393 309.967 387H307.965C307.549 386.359 307.055 385.709 306.483 385.05C305.929 384.391 305.339 383.767 304.715 383.178C304.109 382.571 303.493 382.025 302.869 381.54C302.263 381.055 301.708 380.665 301.205 380.37V387H299.515ZM322.34 375.716C321.82 376.34 321.213 377.129 320.52 378.082C319.844 379.035 319.15 380.041 318.44 381.098C317.746 382.155 317.079 383.204 316.438 384.244C315.796 385.284 315.242 386.203 314.774 387H313.188V373.558H314.852V384.322C315.268 383.577 315.779 382.719 316.386 381.748C317.01 380.76 317.668 379.772 318.362 378.784C319.055 377.779 319.748 376.817 320.442 375.898C321.152 374.979 321.811 374.199 322.418 373.558H324.004V387H322.34V375.716ZM339.771 373.272C340.291 373.272 340.871 373.307 341.513 373.376C342.171 373.428 342.787 373.575 343.359 373.818C343.931 374.043 344.407 374.407 344.789 374.91C345.187 375.395 345.387 376.063 345.387 376.912C345.387 377.571 345.196 378.16 344.815 378.68C344.433 379.183 343.913 379.555 343.255 379.798C344.225 380.058 344.927 380.474 345.361 381.046C345.794 381.618 346.011 382.32 346.011 383.152C346.011 384.053 345.829 384.781 345.465 385.336C345.101 385.873 344.615 386.289 344.009 386.584C343.419 386.861 342.743 387.043 341.981 387.13C341.235 387.217 340.473 387.26 339.693 387.26C338.757 387.26 337.933 387.199 337.223 387.078C336.529 386.957 335.931 386.827 335.429 386.688V373.844C335.862 373.705 336.434 373.575 337.145 373.454C337.855 373.333 338.731 373.272 339.771 373.272ZM337.119 379.2H340.187C341.227 379.2 342.067 379.027 342.709 378.68C343.35 378.333 343.671 377.753 343.671 376.938C343.671 376.418 343.558 376.011 343.333 375.716C343.107 375.421 342.813 375.205 342.449 375.066C342.085 374.91 341.669 374.815 341.201 374.78C340.733 374.728 340.265 374.702 339.797 374.702C339.225 374.702 338.679 374.737 338.159 374.806C337.639 374.858 337.292 374.91 337.119 374.962V379.2ZM337.119 380.604V385.544C337.205 385.579 337.344 385.613 337.535 385.648C337.743 385.665 337.968 385.691 338.211 385.726C338.471 385.743 338.739 385.761 339.017 385.778C339.311 385.795 339.589 385.804 339.849 385.804C340.438 385.804 341.001 385.769 341.539 385.7C342.076 385.631 342.544 385.501 342.943 385.31C343.341 385.102 343.662 384.833 343.905 384.504C344.147 384.157 344.269 383.707 344.269 383.152C344.269 382.667 344.165 382.259 343.957 381.93C343.766 381.601 343.489 381.341 343.125 381.15C342.778 380.959 342.362 380.821 341.877 380.734C341.409 380.647 340.897 380.604 340.343 380.604H337.119ZM354.38 385.778C355.039 385.778 355.611 385.761 356.096 385.726C356.599 385.674 357.023 385.613 357.37 385.544V380.812C357.179 380.725 356.876 380.639 356.46 380.552C356.044 380.448 355.472 380.396 354.744 380.396C354.328 380.396 353.895 380.431 353.444 380.5C352.993 380.552 352.577 380.682 352.196 380.89C351.815 381.081 351.503 381.349 351.26 381.696C351.017 382.043 350.896 382.502 350.896 383.074C350.896 383.577 350.974 384.001 351.13 384.348C351.303 384.695 351.537 384.972 351.832 385.18C352.144 385.388 352.508 385.544 352.924 385.648C353.357 385.735 353.843 385.778 354.38 385.778ZM354.224 373.246C355.108 373.246 355.853 373.376 356.46 373.636C357.084 373.879 357.587 374.225 357.968 374.676C358.349 375.109 358.627 375.629 358.8 376.236C358.973 376.843 359.06 377.501 359.06 378.212V386.688C358.887 386.74 358.635 386.801 358.306 386.87C357.977 386.922 357.595 386.983 357.162 387.052C356.729 387.121 356.243 387.173 355.706 387.208C355.186 387.26 354.649 387.286 354.094 387.286C353.383 387.286 352.725 387.208 352.118 387.052C351.529 386.896 351.009 386.653 350.558 386.324C350.125 385.977 349.778 385.544 349.518 385.024C349.275 384.487 349.154 383.837 349.154 383.074C349.154 382.346 349.293 381.722 349.57 381.202C349.847 380.682 350.237 380.257 350.74 379.928C351.243 379.581 351.841 379.33 352.534 379.174C353.227 379.018 353.981 378.94 354.796 378.94C355.039 378.94 355.29 378.957 355.55 378.992C355.827 379.009 356.087 379.044 356.33 379.096C356.59 379.131 356.807 379.174 356.98 379.226C357.171 379.261 357.301 379.295 357.37 379.33V378.498C357.37 378.03 357.335 377.579 357.266 377.146C357.197 376.695 357.041 376.297 356.798 375.95C356.573 375.586 356.243 375.3 355.81 375.092C355.394 374.867 354.839 374.754 354.146 374.754C353.158 374.754 352.421 374.823 351.936 374.962C351.451 375.101 351.095 375.213 350.87 375.3L350.636 373.818C350.931 373.679 351.381 373.549 351.988 373.428C352.612 373.307 353.357 373.246 354.224 373.246ZM380.349 387H363.891V373.558H365.581V385.57H371.275V373.558H372.965V385.57H378.659V373.558H380.349V387ZM394.484 375.716C393.964 376.34 393.358 377.129 392.664 378.082C391.988 379.035 391.295 380.041 390.584 381.098C389.891 382.155 389.224 383.204 388.582 384.244C387.941 385.284 387.386 386.203 386.918 387H385.332V373.558H386.996V384.322C387.412 383.577 387.924 382.719 388.53 381.748C389.154 380.76 389.813 379.772 390.506 378.784C391.2 377.779 391.893 376.817 392.586 375.898C393.297 374.979 393.956 374.199 394.562 373.558H396.148V387H394.484V375.716ZM405.35 380.916C404.968 381.419 404.587 381.947 404.206 382.502C403.824 383.057 403.452 383.603 403.088 384.14C402.741 384.677 402.42 385.197 402.126 385.7C401.831 386.185 401.58 386.619 401.372 387H399.63C400.34 385.665 401.086 384.426 401.866 383.282C402.646 382.121 403.443 380.985 404.258 379.876L399.89 373.558H401.866L405.35 378.706L408.886 373.558H410.732L406.442 379.772C406.806 380.257 407.196 380.786 407.612 381.358C408.028 381.93 408.444 382.528 408.86 383.152C409.276 383.759 409.674 384.391 410.056 385.05C410.454 385.709 410.818 386.359 411.148 387H409.328C409.12 386.619 408.868 386.185 408.574 385.7C408.279 385.197 407.95 384.677 407.586 384.14C407.239 383.603 406.866 383.057 406.468 382.502C406.086 381.947 405.714 381.419 405.35 380.916ZM229.303 415.778C230.516 415.778 231.47 415.579 232.163 415.18C232.856 414.764 233.203 414.149 233.203 413.334C233.203 412.745 233.073 412.277 232.813 411.93C232.553 411.583 232.224 411.315 231.825 411.124C231.444 410.933 231.028 410.812 230.577 410.76C230.144 410.691 229.745 410.656 229.381 410.656H227.509V409.226H229.251C229.563 409.226 229.918 409.2 230.317 409.148C230.733 409.096 231.114 408.992 231.461 408.836C231.808 408.68 232.102 408.463 232.345 408.186C232.588 407.891 232.709 407.51 232.709 407.042C232.709 406.591 232.605 406.219 232.397 405.924C232.206 405.629 231.946 405.395 231.617 405.222C231.288 405.049 230.906 404.927 230.473 404.858C230.057 404.789 229.632 404.754 229.199 404.754C228.211 404.754 227.431 404.858 226.859 405.066C226.287 405.257 225.897 405.404 225.689 405.508L225.299 404C225.542 403.879 226.001 403.731 226.677 403.558C227.353 403.367 228.194 403.272 229.199 403.272C230.915 403.272 232.215 403.584 233.099 404.208C233.983 404.832 234.425 405.759 234.425 406.99C234.425 407.753 234.2 408.377 233.749 408.862C233.298 409.33 232.77 409.659 232.163 409.85C233.012 410.093 233.688 410.5 234.191 411.072C234.694 411.644 234.945 412.398 234.945 413.334C234.945 414.669 234.468 415.665 233.515 416.324C232.562 416.983 231.166 417.312 229.329 417.312C228.098 417.312 227.11 417.208 226.365 417C225.62 416.792 225.143 416.636 224.935 416.532L225.377 414.998C225.429 415.033 225.542 415.093 225.715 415.18C225.906 415.249 226.166 415.336 226.495 415.44C226.824 415.527 227.223 415.605 227.691 415.674C228.159 415.743 228.696 415.778 229.303 415.778ZM249.78 417H248.09V410.734H240.784V417H239.094V403.558H240.784V409.304H248.09V403.558H249.78V417ZM259.01 415.778C259.669 415.778 260.241 415.761 260.726 415.726C261.229 415.674 261.653 415.613 262 415.544V410.812C261.809 410.725 261.506 410.639 261.09 410.552C260.674 410.448 260.102 410.396 259.374 410.396C258.958 410.396 258.525 410.431 258.074 410.5C257.623 410.552 257.207 410.682 256.826 410.89C256.445 411.081 256.133 411.349 255.89 411.696C255.647 412.043 255.526 412.502 255.526 413.074C255.526 413.577 255.604 414.001 255.76 414.348C255.933 414.695 256.167 414.972 256.462 415.18C256.774 415.388 257.138 415.544 257.554 415.648C257.987 415.735 258.473 415.778 259.01 415.778ZM258.854 403.246C259.738 403.246 260.483 403.376 261.09 403.636C261.714 403.879 262.217 404.225 262.598 404.676C262.979 405.109 263.257 405.629 263.43 406.236C263.603 406.843 263.69 407.501 263.69 408.212V416.688C263.517 416.74 263.265 416.801 262.936 416.87C262.607 416.922 262.225 416.983 261.792 417.052C261.359 417.121 260.873 417.173 260.336 417.208C259.816 417.26 259.279 417.286 258.724 417.286C258.013 417.286 257.355 417.208 256.748 417.052C256.159 416.896 255.639 416.653 255.188 416.324C254.755 415.977 254.408 415.544 254.148 415.024C253.905 414.487 253.784 413.837 253.784 413.074C253.784 412.346 253.923 411.722 254.2 411.202C254.477 410.682 254.867 410.257 255.37 409.928C255.873 409.581 256.471 409.33 257.164 409.174C257.857 409.018 258.611 408.94 259.426 408.94C259.669 408.94 259.92 408.957 260.18 408.992C260.457 409.009 260.717 409.044 260.96 409.096C261.22 409.131 261.437 409.174 261.61 409.226C261.801 409.261 261.931 409.295 262 409.33V408.498C262 408.03 261.965 407.579 261.896 407.146C261.827 406.695 261.671 406.297 261.428 405.95C261.203 405.586 260.873 405.3 260.44 405.092C260.024 404.867 259.469 404.754 258.776 404.754C257.788 404.754 257.051 404.823 256.566 404.962C256.081 405.101 255.725 405.213 255.5 405.3L255.266 403.818C255.561 403.679 256.011 403.549 256.618 403.428C257.242 403.307 257.987 403.246 258.854 403.246ZM279.206 417H277.516V410.734H270.21V417H268.52V403.558H270.21V409.304H277.516V403.558H279.206V417ZM293.351 405.716C292.831 406.34 292.224 407.129 291.531 408.082C290.855 409.035 290.161 410.041 289.451 411.098C288.757 412.155 288.09 413.204 287.449 414.244C286.807 415.284 286.253 416.203 285.785 417H284.199V403.558H285.863V414.322C286.279 413.577 286.79 412.719 287.397 411.748C288.021 410.76 288.679 409.772 289.373 408.784C290.066 407.779 290.759 406.817 291.453 405.898C292.163 404.979 292.822 404.199 293.429 403.558H295.015V417H293.351V405.716ZM309.156 405.716C308.636 406.34 308.029 407.129 307.336 408.082C306.66 409.035 305.966 410.041 305.256 411.098C304.562 412.155 303.895 413.204 303.254 414.244C302.612 415.284 302.058 416.203 301.59 417H300.004V403.558H301.668V414.322C302.084 413.577 302.595 412.719 303.202 411.748C303.826 410.76 304.484 409.772 305.178 408.784C305.871 407.779 306.564 406.817 307.258 405.898C307.968 404.979 308.627 404.199 309.234 403.558H310.82V417H309.156V405.716ZM305.412 401.27C304.441 401.27 303.644 401.001 303.02 400.464C302.396 399.927 301.997 399.164 301.824 398.176L303.202 397.812C303.306 398.401 303.531 398.887 303.878 399.268C304.242 399.632 304.753 399.814 305.412 399.814C306.07 399.814 306.573 399.632 306.92 399.268C307.284 398.887 307.518 398.401 307.622 397.812L309 398.176C308.826 399.164 308.428 399.927 307.804 400.464C307.18 401.001 306.382 401.27 305.412 401.27Z" fill="black"/>
</svg>
