<svg width="35" height="35" viewBox="0 0 35 35" fill="none" xmlns="http://www.w3.org/2000/svg">
<path d="M13.7085 24.0625L17.5002 20.2708L21.2918 24.0625L23.3335 22.0208L19.5418 18.2292L23.3335 14.4375L21.2918 12.3958L17.5002 16.1875L13.7085 12.3958L11.6668 14.4375L15.4585 18.2292L11.6668 22.0208L13.7085 24.0625ZM10.2085 30.625C9.40641 30.625 8.72002 30.3397 8.14933 29.769C7.57766 29.1973 7.29183 28.5104 7.29183 27.7083V8.75H5.8335V5.83333H13.1252V4.375H21.8752V5.83333H29.1668V8.75H27.7085V27.7083C27.7085 28.5104 27.4231 29.1973 26.8525 29.769C26.2808 30.3397 25.5939 30.625 24.7918 30.625H10.2085ZM24.7918 8.75H10.2085V27.7083H24.7918V8.75Z" fill="#780000"/>
</svg>
