<svg width="36" height="35" viewBox="0 0 36 35" fill="none" xmlns="http://www.w3.org/2000/svg">
<g clip-path="url(#clip0_42_32)">
<path d="M28.3043 24.7917V27.7083H10.8043V24.7917C10.8043 24.7917 10.8043 18.9583 19.5543 18.9583C28.3043 18.9583 28.3043 24.7917 28.3043 24.7917ZM23.9293 11.6667C23.9293 10.8014 23.6727 9.95552 23.192 9.23605C22.7112 8.51659 22.0279 7.95583 21.2285 7.6247C20.4291 7.29357 19.5494 7.20693 18.7008 7.37574C17.8521 7.54455 17.0725 7.96123 16.4607 8.57308C15.8488 9.18494 15.4322 9.96449 15.2633 10.8132C15.0945 11.6618 15.1812 12.5415 15.5123 13.3409C15.8434 14.1403 16.4042 14.8236 17.1237 15.3044C17.8431 15.7851 18.689 16.0417 19.5543 16.0417C20.7146 16.0417 21.8274 15.5807 22.6479 14.7603C23.4683 13.9398 23.9293 12.827 23.9293 11.6667ZM28.5959 19.0458C29.3931 19.7813 30.0358 20.6681 30.4865 21.6547C30.9372 22.6412 31.1869 23.7076 31.2209 24.7917V27.7083H35.5959V24.7917C35.5959 24.7917 35.5959 19.7604 28.5959 19.0458ZM26.8459 7.29167C26.4053 7.29194 25.9674 7.36082 25.548 7.49584C26.4012 8.71934 26.8587 10.1751 26.8587 11.6667C26.8587 13.1583 26.4012 14.614 25.548 15.8375C25.9674 15.9725 26.4053 16.0414 26.8459 16.0417C28.0063 16.0417 29.1191 15.5807 29.9395 14.7603C30.76 13.9398 31.2209 12.827 31.2209 11.6667C31.2209 10.5064 30.76 9.39355 29.9395 8.57308C29.1191 7.75261 28.0063 7.29167 26.8459 7.29167ZM12.2626 14.5833H7.88761V10.2083H4.97095V14.5833H0.595947V17.5H4.97095V21.875H7.88761V17.5H12.2626V14.5833Z" fill="#102A49"/>
</g>
<defs>
<clipPath id="clip0_42_32">
<rect width="35" height="35" fill="white" transform="translate(0.595947)"/>
</clipPath>
</defs>
</svg>
